<svg data-v-794ed883="" xmlns="http://www.w3.org/2000/svg" fill="none" class="p54f01" viewBox="0 0 1024 1024">
    <g clip-path="url(#p54f01_a)">
        <path d="M0 0h1024v1024H0z">
        </path>
        <path id="bg" class="svg-bg"  d="M1024.01 0H.005v1024H1024.01V0Z">
        </path>
        <path fill="#CBD5A9" d="M1003.52 1015.76c5.66 0 10.24-4.58 10.24-10.24 0-5.655-4.58-10.242-10.24-10.242h-40.96c-5.65 0-10.238 4.587-10.238 10.242V1026h20.483v-10.24h30.715Zm-450.559-20.482h-71.679v-30.721c0-5.65-4.584-10.237-10.24-10.237h-81.92c-5.656 0-10.24 4.587-10.24 10.237 0 5.657 4.584 10.245 10.24 10.245h71.68v30.698l-.001.02c0 5.66 4.585 10.24 10.241 10.24h81.919c5.656 0 10.241-4.58 10.241-10.24 0-5.655-4.585-10.242-10.241-10.242Zm-532.48-20.461c5.655 0 10.24-4.588 10.24-10.245v-40.958c0-5.657-4.585-10.238-10.24-10.238s-10.24 4.581-10.24 10.238v40.958c0 5.657 4.585 10.245 10.24 10.245Zm153.6-92.176c0 5.657 4.585 10.238 10.241 10.238 5.655 0 10.24-4.581 10.24-10.238 0-5.657-4.585-10.237-10.24-10.237-5.656 0-10.241 4.58-10.241 10.237Zm174.081-51.34h-81.92a10.238 10.238 0 0 0-10.188 9.19c-.044.39-.072.781-.072 1.178v40.965c0 5.657 4.584 10.238 10.239 10.238 5.656 0 10.24-4.581 10.24-10.238v-30.857h61.461v30.857c0 5.657 4.584 10.238 10.24 10.238 5.656 0 10.24-4.581 10.24-10.238v-40.965c0-.022-.003-.043-.003-.065 0-.022.003-.043.003-.065 0-5.657-4.584-10.238-10.24-10.238Zm542.893 10.238a10.235 10.235 0 0 0-10.238-10.238h-81.916c-5.657 0-10.245 4.581-10.245 10.238v30.72h-71.677c-5.656 0-10.24 4.581-10.24 10.238 0 5.657 4.584 10.245 10.24 10.245h81.922c5.65 0 10.238-4.588 10.238-10.245v-30.72h71.678a10.235 10.235 0 0 0 10.238-10.238Zm-205.074-.029c0-5.657-4.584-10.245-10.24-10.245h-40.96a10.201 10.201 0 0 0-7.255 3.02 10.187 10.187 0 0 0-3.016 7.254v40.958c0 5.657 4.584 10.245 10.24 10.245 5.656 0 10.24-4.588 10.24-10.245v-30.749h30.751c5.656 0 10.24-4.588 10.24-10.238Zm-51.722-30.345c5.655 0 10.24-4.58 10.24-10.237V759.97c0-5.657-4.585-10.238-10.24-10.238-5.656 0-10.24 4.581-10.24 10.238v30.72h-30.72c-5.656 0-10.24 4.581-10.24 10.238 0 5.657 4.584 10.237 10.24 10.237h40.96Zm246.558-20.829c-5.65 0-10.238 4.588-10.238 10.245 0 5.65 4.588 10.238 10.238 10.238 5.657 0 10.245-4.588 10.245-10.238 0-5.657-4.588-10.245-10.245-10.245ZM61.441 729.033c5.656 0 10.24-4.582 10.24-10.237s-4.584-10.24-10.24-10.24c-5.655 0-10.24 4.585-10.24 10.24s4.585 10.237 10.24 10.237Zm409.573-102.4c-5.655 0-10.24 4.585-10.24 10.24v30.72h-30.692c-5.655 0-10.24 4.585-10.24 10.24s4.585 10.24 10.24 10.24h40.96c5.656 0 10.24-4.585 10.24-10.24 0-.191-.018-.377-.028-.566v-40.394c0-5.655-4.585-10.24-10.24-10.24Zm235.705 10.084c0 5.656 4.584 10.241 10.24 10.241h30.92v28.872a9.917 9.917 0 0 0-.181 1.868c0 5.655 4.588 10.24 10.238 10.24h40.965c5.65 0 10.238-4.585 10.238-10.24s-4.588-10.24-10.238-10.24h-30.547v-30.721c0-5.334-4.075-9.711-9.284-10.191a10.294 10.294 0 0 0-1.148-.069h-40.963c-5.656 0-10.24 4.585-10.24 10.24Zm-235.677-91.989c-5.655 0-10.24 4.584-10.24 10.239v30.721h-30.564c-.05-.001-.098-.007-.148-.007a10.21 10.21 0 0 0-7.245 3.003 10.207 10.207 0 0 0-3.003 7.244c0 .05.008.099.008.148v40.804c0 5.656 4.584 10.24 10.24 10.24 5.655 0 10.24-4.584 10.24-10.24v-30.712h30.712c5.656 0 10.24-4.585 10.24-10.24v-40.961c0-5.655-4.584-10.239-10.24-10.239Zm-194.56 92.152c0-5.655-4.585-10.24-10.24-10.24h-81.92c-5.656 0-10.241 4.585-10.241 10.24s4.585 10.24 10.241 10.24h81.92c5.655 0 10.24-4.585 10.24-10.24ZM440.322 514c0-5.656-4.584-10.24-10.24-10.24-5.655 0-10.24 4.584-10.24 10.24 0 5.655 4.585 10.24 10.24 10.24 5.656 0 10.24-4.585 10.24-10.24Zm348.045-40.652c0 5.656 4.581 10.24 10.238 10.24h81.923c5.65 0 10.238-4.584 10.238-10.24 0-5.655-4.588-10.239-10.238-10.239h-81.923c-5.657 0-10.238 4.584-10.238 10.239Zm-604.045-10.544h-81.92c-5.656 0-10.24 4.585-10.24 10.24s4.584 10.24 10.24 10.24h81.92c5.655 0 10.24-4.585 10.24-10.24s-4.585-10.24-10.24-10.24Zm153.6 10.236c0 5.656 4.584 10.24 10.24 10.24 5.656 0 10.24-4.584 10.24-10.24v-81.92c0-5.656-4.584-10.24-10.24-10.24-5.656 0-10.24 4.584-10.24 10.24v81.92Zm174.081-51.2h-40.96c-5.655 0-10.24 4.584-10.24 10.24 0 5.655 4.585 10.24 10.24 10.24h30.72v30.72c0 5.656 4.585 10.24 10.24 10.24h40.96c5.656 0 10.24-4.584 10.24-10.24 0-5.656-4.584-10.24-10.24-10.24h-30.72v-30.72c0-5.656-4.584-10.24-10.24-10.24Zm450.441-40.96c-5.657 0-10.238 4.584-10.238 10.24 0 5.655 4.581 10.239 10.238 10.239 5.657 0 10.245-4.584 10.245-10.239 0-5.656-4.588-10.24-10.245-10.24ZM184.322 258c-5.656 0-10.241 4.585-10.241 10.241v40.96c0 5.655 4.585 10.24 10.241 10.24h30.72v30.72c0 5.655 4.585 10.24 10.239 10.24 5.656 0 10.241-4.585 10.241-10.24v-40.96c0-5.656-4.585-10.241-10.241-10.241h-30.719v-30.719c0-5.656-4.585-10.241-10.24-10.241Zm276.48 92.159c0 5.656 4.585 10.24 10.24 10.24h81.92c5.656 0 10.24-4.584 10.24-10.24 0-5.655-4.584-10.239-10.24-10.239h-71.681v-30.721c0-5.655-4.584-10.24-10.239-10.24-5.655 0-10.24 4.585-10.24 10.24v40.96Zm92.161-51.2c-5.656 0-10.241 4.585-10.241 10.24 0 5.656 4.585 10.24 10.241 10.24 5.655 0 10.239-4.584 10.239-10.24 0-5.655-4.584-10.24-10.239-10.24Zm286.607-20.17c5.65 0 10.238-4.585 10.238-10.241v-40.96c0-5.655-4.588-10.24-10.238-10.24-5.657 0-10.245 4.585-10.245 10.24v40.96c0 5.656 4.588 10.241 10.245 10.241ZM317.442 186.32c0-5.656-4.585-10.241-10.24-10.241s-10.24 4.585-10.24 10.241v81.919c0 5.656 4.585 10.241 10.24 10.241h81.92c5.656 0 10.24-4.585 10.24-10.241 0-5.655-4.584-10.24-10.24-10.24h-71.68V186.32Zm112.64 51.2c5.656 0 10.24-4.585 10.24-10.241v-40.96c0-5.655-4.584-10.24-10.24-10.24-5.655 0-10.24 4.585-10.24 10.24v40.96c0 5.656 4.585 10.241 10.24 10.241Zm491.52-81.921h30.713v30.75c0 5.656 4.588 10.24 10.238 10.24 5.657 0 10.244-4.584 10.244-10.24v-40.841c0-.05.008-.099.008-.149 0-5.655-4.588-10.24-10.245-10.24h-30.692v-30.72c0-5.655-4.58-10.24-10.237-10.24s-10.238 4.585-10.238 10.24v40.394a7.101 7.101 0 0 0-.029.566c0 5.655 4.581 10.24 10.238 10.24Zm-778.24 20.48c-5.656 0-10.241 4.585-10.241 10.241 0 5.654 4.585 10.239 10.241 10.239 5.655 0 10.24-4.585 10.24-10.239 0-5.656-4.585-10.241-10.24-10.241ZM993.28 186.32c0 5.654 4.588 10.239 10.24 10.239H1024v-20.48h-20.48c-5.652 0-10.24 4.585-10.24 10.241ZM20.481 196.559c5.655 0 10.24-4.585 10.24-10.239v-30.721h30.72c5.656 0 10.24-4.585 10.24-10.24s-4.584-10.24-10.24-10.24H20.48c-5.655 0-10.24 4.585-10.24 10.24v30.72H0v20.48h20.481Zm532.482-40.96c5.655 0 10.239-4.585 10.239-10.24v-81.92c0-5.655-4.584-10.24-10.239-10.24-5.656 0-10.241 4.585-10.241 10.24v81.92c0 5.655 4.585 10.24 10.241 10.24Zm-133.121-10.24c0 5.655 4.585 10.24 10.24 10.24h81.92c5.655 0 10.24-4.585 10.24-10.24s-4.585-10.24-10.24-10.24h-81.92c-5.655 0-10.24 4.585-10.24 10.24Zm-153.6-51.2h-40.961c-5.654 0-10.239 4.585-10.239 10.24s4.585 10.24 10.239 10.24h40.961c5.655 0 10.24-4.585 10.24-10.24s-4.585-10.24-10.24-10.24Zm409.6-20.48h.001c5.655 0 10.24-4.584 10.24-10.24 0-5.655-4.585-10.24-10.24-10.24h-.001c-5.655 0-10.24 4.585-10.24 10.24 0 5.656 4.585 10.24 10.24 10.24Zm-204.8 0c5.656 0 10.24-4.584 10.24-10.24 0-5.655-4.584-10.24-10.24-10.24-5.655 0-10.24 4.585-10.24 10.24 0 5.656 4.585 10.24 10.24 10.24ZM962.56 32.72c5.657 0 10.245-4.585 10.245-10.241V1.999h-20.483v20.48c0 5.656 4.588 10.241 10.238 10.241Zm-655.358 0h40.96c5.656 0 10.24-4.585 10.24-10.241 0-5.655-4.584-10.24-10.24-10.24h-40.96c-5.655 0-10.24 4.585-10.24 10.24 0 5.656 4.585 10.241 10.24 10.241Z" class="e">
        </path>
        <path fill="#29374D" d="M430.085 995.28h-40.96c-5.656 0-10.24 4.587-10.24 10.25V1026h20.48v-10.24h20.48V1026h20.48v-20.47c0-5.663-4.584-10.25-10.24-10.25Zm450.555.007c-5.657 0-10.238 4.588-10.238 10.243V1026h20.475v-20.47c0-5.655-4.58-10.243-10.237-10.243Zm-573.435-40.965h-81.921c-5.654 0-10.239 4.587-10.239 10.237v40.971c0 5.65 4.585 10.23 10.239 10.23 5.656 0 10.241-4.58 10.241-10.23v-30.726h61.44v30.726c0 5.65 4.585 10.23 10.24 10.23s10.24-4.58 10.24-10.23v-40.971c0-5.65-4.585-10.237-10.24-10.237Zm286.721 40.958c-5.656 0-10.241 4.587-10.241 10.25 0 5.65 4.585 10.23 10.241 10.23 5.655 0 10.24-4.58 10.24-10.23 0-5.663-4.585-10.25-10.24-10.25Zm-40.865-81.902h-.001c-5.655 0-10.24 4.581-10.24 10.238v30.706h-20.632v-30.706c0-5.657-4.585-10.238-10.24-10.238s-10.239 4.581-10.239 10.238v40.958c0 5.657 4.584 10.245 10.239 10.245.083 0 .162-.015.244-.015h40.625c.081 0 .162.015.243.015h.001c5.655 0 10.24-4.588 10.24-10.245v-40.958c0-5.657-4.585-10.238-10.24-10.238Zm-450.656 0c-5.656 0-10.24 4.581-10.24 10.238v30.706h-20.48v-30.706c0-5.657-4.585-10.238-10.24-10.238-5.656 0-10.24 4.581-10.24 10.238v40.958c0 5.657 4.584 10.245 10.24 10.245.081 0 .161-.015.243-.015h40.473c.082 0 .161.015.244.015 5.655 0 10.24-4.588 10.24-10.245v-40.958c0-5.657-4.585-10.238-10.24-10.238Zm870.403 10.223c0-5.657-4.588-10.237-10.245-10.237h-40.958a10.234 10.234 0 0 0-10.238 10.237c0 5.657 4.581 10.245 10.238 10.245h30.72v30.721c0 5.657 4.588 10.244 10.238 10.244h40.967c5.66 0 10.24-4.587 10.24-10.244 0-5.65-4.58-10.238-10.24-10.238h-30.722v-30.728Zm-582.89-133.277c-5.655 0-10.24 4.587-10.24 10.244v123.315c0 5.657 4.585 10.245 10.24 10.245 5.656 0 10.241-4.588 10.241-10.245V800.568c0-5.657-4.585-10.244-10.241-10.244ZM235.525 923.601c0-5.657-4.585-10.237-10.241-10.237h-71.679v-30.721l-.002-.036.002-.029c0-5.657-4.585-10.237-10.24-10.237h-81.92c-5.656 0-10.24 4.58-10.24 10.237s4.584 10.238 10.24 10.238h71.679v30.785c0 5.657 4.585 10.245 10.241 10.245h81.919c5.656 0 10.241-4.588 10.241-10.245Zm692.618-33.082a10.219 10.219 0 0 0 3.88-8.02v-40.958c0-5.657-4.588-10.238-10.238-10.238-5.657 0-10.244 4.581-10.244 10.238v30.865h-28.394a10.139 10.139 0 0 0-6.178.686c-3.843 1.481-6.567 5.188-6.567 9.551v40.958c0 5.657 4.581 10.245 10.238 10.245 1.481 0 2.89-.325 4.161-.896a10.22 10.22 0 0 0 6.568-9.551v-30.518h30.229c2.492 0 4.768-.889 6.545-2.362Zm-456.775-59.216c-5.655 0-10.24 4.581-10.24 10.238 0 5.657 4.585 10.238 10.24 10.238 5.656 0 10.24-4.581 10.24-10.238 0-5.657-4.584-10.238-10.24-10.238Zm81.365-81.807h-40.96c-5.656 0-10.24 4.587-10.24 10.245 0 5.649 4.584 10.237 10.24 10.237h30.719v30.952c0 5.657 4.585 10.237 10.241 10.237 5.655 0 10.24-4.58 10.24-10.237v-40.958c0-.044-.006-.08-.006-.116 0-.043.006-.079.006-.115 0-5.658-4.585-10.245-10.24-10.245ZM30.724 800.727c0-5.657-4.585-10.237-10.24-10.237s-10.24 4.58-10.24 10.237c0 5.658 4.585 10.238 10.24 10.238s10.24-4.58 10.24-10.238Zm962.559-.014c0 5.657 4.588 10.245 10.247 10.245 5.66 0 10.24-4.588 10.24-10.245v-81.917c0-5.655-4.58-10.24-10.24-10.24-5.659 0-10.247 4.585-10.247 10.24v81.917Zm-878.555-.137c0-5.657-4.585-10.245-10.241-10.245-5.655 0-10.24 4.588-10.24 10.245 0 5.65 4.585 10.237 10.24 10.237 5.656 0 10.241-4.587 10.241-10.237Zm684.176-30.713c5.65 0 10.238-4.588 10.238-10.245 0-5.657-4.588-10.238-10.238-10.238-5.657 0-10.245 4.581-10.245 10.238 0 5.657 4.588 10.245 10.245 10.245ZM51.263 677.835c0 5.655 4.584 10.24 10.239 10.24h30.72v30.75c0 5.656 4.586 10.239 10.241 10.239 5.655 0 10.24-4.583 10.24-10.239v-40.96l-.001-.015.001-.015c0-5.655-4.585-10.24-10.24-10.24H61.502c-5.655 0-10.24 4.585-10.24 10.24Zm675.782 40.99v-40.96c0-5.656-4.584-10.24-10.239-10.24-5.655 0-10.24 4.584-10.24 10.24v40.96c0 5.656 4.585 10.239 10.24 10.239s10.239-4.583 10.239-10.239Zm61.614-.107c0 5.656 4.588 10.237 10.245 10.237h40.958a10.234 10.234 0 0 0 10.238-10.237c0-5.655-4.581-10.24-10.238-10.24h-40.958c-5.657 0-10.245 4.585-10.245 10.24Zm-153.715-51.123c-5.655 0-10.239 4.585-10.239 10.24s4.584 10.24 10.239 10.24c5.656 0 10.24-4.585 10.24-10.24s-4.584-10.24-10.24-10.24Zm-297.019-30.713c0 5.655 4.584 10.24 10.24 10.24h40.96c5.656 0 10.24-4.585 10.24-10.24s-4.584-10.24-10.24-10.24h-30.72v-30.72c0-5.655-4.584-10.24-10.24-10.24h-40.96c-5.655 0-10.24 4.585-10.24 10.24s4.585 10.24 10.24 10.24h30.72v30.72Zm501.937 10.098c5.657 0 10.238-4.585 10.238-10.24v-81.92c0-5.656-4.581-10.241-10.238-10.241-5.657 0-10.237 4.585-10.237 10.241v81.92c0 5.655 4.58 10.24 10.237 10.24ZM266.245 503.762c-5.655 0-10.24 4.584-10.24 10.24v81.92c0 5.655 4.585 10.24 10.24 10.24s10.24-4.585 10.24-10.24v-81.92c0-5.656-4.585-10.24-10.24-10.24Zm245.768 102.4c5.656 0 10.24-4.585 10.24-10.24v-81.92c0-5.656-4.584-10.24-10.24-10.24-5.655 0-10.239 4.584-10.239 10.24v81.92c0 5.655 4.584 10.24 10.239 10.24Zm204.793-20.487c-5.655 0-10.24 4.584-10.24 10.24 0 5.655 4.585 10.24 10.24 10.24s10.239-4.585 10.239-10.24c0-5.656-4.584-10.24-10.239-10.24Zm235.519-30.714c0 5.655 4.588 10.24 10.245 10.24h40.96c5.66 0 10.24-4.585 10.24-10.24 0-5.656-4.58-10.241-10.24-10.241h-40.96c-5.657 0-10.245 4.585-10.245 10.241Zm10.418-91.85c-.029 0-.057.004-.086.004-.029 0-.058-.004-.094-.004h-40.958c-5.657 0-10.238 4.584-10.238 10.239 0 5.656 4.581 10.24 10.238 10.24h30.893v30.721c0 5.655 4.588 10.239 10.245 10.239 5.65 0 10.238-4.584 10.238-10.239V473.35c0-5.655-4.588-10.239-10.238-10.239Zm-205.093 0c-5.658 0-10.245 4.584-10.245 10.239v40.961c0 5.655 4.587 10.239 10.245 10.239 5.657 0 10.238-4.584 10.238-10.239V473.35c0-5.655-4.581-10.239-10.238-10.239Zm-460.685 50.891c0 5.655 4.585 10.24 10.24 10.24s10.24-4.585 10.24-10.24v-40.96c0-5.656-4.585-10.24-10.24-10.24s-10.24 4.584-10.24 10.24v40.96Zm-112.64 10.239c5.655 0 10.24-4.585 10.24-10.24s-4.585-10.24-10.24-10.24c-5.656 0-10.241 4.585-10.241 10.24s4.585 10.24 10.241 10.24Zm-122.88 0c5.655 0 10.24-4.585 10.24-10.24s-4.585-10.24-10.24-10.24c-5.656 0-10.24 4.585-10.24 10.24s4.584 10.24 10.24 10.24ZM850.1 432.39c0-5.655-4.581-10.24-10.238-10.24-5.657 0-10.237 4.585-10.237 10.24 0 5.656 4.58 10.241 10.237 10.241s10.238-4.585 10.238-10.241Zm-51.492 10.241c5.657 0 10.238-4.585 10.238-10.241v-81.92c0-5.655-4.581-10.24-10.238-10.24-5.657 0-10.238 4.585-10.238 10.24v81.92c0 5.656 4.581 10.241 10.238 10.241Zm-245.64-.309c5.655 0 10.24-4.585 10.24-10.24 0-5.656-4.585-10.24-10.24-10.24-5.656 0-10.241 4.584-10.241 10.24 0 5.655 4.585 10.24 10.241 10.24Zm-481.284-51.2v-40.961c0-5.655-4.584-10.239-10.24-10.239h-40.96c-5.655 0-10.24 4.584-10.24 10.239 0 5.656 4.585 10.24 10.24 10.24h30.72v20.481h-30.72c-5.655 0-10.24 4.584-10.24 10.24 0 5.655 4.585 10.239 10.24 10.239h40.96c5.656 0 10.24-4.584 10.24-10.239Zm389.121 0c0 5.655 4.585 10.239 10.24 10.239h122.881c5.655 0 10.24-4.584 10.24-10.239 0-5.656-4.585-10.24-10.24-10.24H471.045c-5.655 0-10.24 4.584-10.24 10.24Zm-317.44 10.239c5.655 0 10.24-4.584 10.24-10.239V268.241c0-5.655-4.585-10.24-10.24-10.24-5.656 0-10.241 4.585-10.241 10.24v122.881c0 5.655 4.585 10.239 10.241 10.239Zm245.76 0c5.656 0 10.24-4.584 10.24-10.239 0-5.656-4.584-10.24-10.24-10.24-5.656 0-10.24 4.584-10.24 10.24 0 5.655 4.584 10.239 10.24 10.239Zm491.406-81.607h81.916c5.657 0 10.245-4.584 10.245-10.24 0-5.655-4.588-10.24-10.245-10.24h-81.916c-5.657 0-10.245 4.585-10.245 10.24 0 5.656 4.588 10.24 10.245 10.24Zm-622.024-10.551c0 5.655 4.585 10.24 10.24 10.24h161.338c5.656 0 10.24-4.585 10.24-10.24 0-5.656-4.584-10.241-10.24-10.241H268.747c-5.655 0-10.24 4.585-10.24 10.241ZM757.65 278.79c5.657 0 10.238-4.585 10.238-10.24s-4.581-10.24-10.238-10.24c-5.658 0-10.245 4.585-10.245 10.24s4.587 10.24 10.245 10.24Zm-296.786-51.509v40.96c0 5.656 4.584 10.241 10.24 10.241 5.656 0 10.24-4.585 10.24-10.241v-40.96c0-5.655-4.584-10.24-10.24-10.24-5.656 0-10.24 4.585-10.24 10.24Zm214.981 10.241h.001c5.655 0 10.24-4.585 10.24-10.241v-81.89c0-5.655-4.585-10.24-10.24-10.24h-.001c-5.655 0-10.24 4.585-10.24 10.24v81.89c0 5.656 4.585 10.241 10.24 10.241Zm81.863-40.961h40.958c5.657 0 10.245-4.585 10.245-10.239v-81.921c0-5.655-4.588-10.24-10.245-10.24h-40.958c-5.657 0-10.239 4.585-10.239 10.24s4.582 10.24 10.239 10.24h30.72v61.44h-30.72c-5.657 0-10.239 4.585-10.239 10.241 0 5.654 4.582 10.239 10.239 10.239Zm-450.503-102.4c-5.655 0-10.24 4.585-10.24 10.24v30.72h-30.72c-5.655 0-10.24 4.585-10.24 10.24s4.585 10.24 10.24 10.24h40.96c5.655 0 10.24-4.585 10.24-10.24v-40.96c0-5.655-4.585-10.24-10.24-10.24Zm614.4-20.465h30.713v30.712c0 5.656 4.588 10.24 10.238 10.24 5.657 0 10.244-4.584 10.244-10.24V63.604c0-.049.008-.098.008-.148a10.2 10.2 0 0 0-3.006-7.244 10.2 10.2 0 0 0-7.246-3.003c-.051 0-.094.007-.145.007H931.85v-30.72c0-5.656-4.588-10.24-10.245-10.24-5.657 0-10.238 4.584-10.238 10.24v40.96c0 5.656 4.581 10.24 10.238 10.24Zm-819.2 40.945c5.655 0 10.24-4.585 10.24-10.24v-30.72h20.479v30.72c0 5.655 4.585 10.24 10.241 10.24 5.655 0 10.24-4.585 10.24-10.24v-40.96c0-5.655-4.585-10.24-10.24-10.24h-40.96c-5.656 0-10.24 4.585-10.24 10.24v40.96c0 5.655 4.584 10.24 10.24 10.24Zm368.64 0h40.96c5.655 0 10.24-4.585 10.24-10.24v-81.92c0-5.655-4.585-10.24-10.24-10.24h-40.96c-5.655 0-10.24 4.585-10.24 10.24 0 5.656 4.585 10.241 10.24 10.241h30.721v61.439h-30.721c-5.655 0-10.24 4.585-10.24 10.24s4.585 10.24 10.24 10.24ZM880.64 73.689c5.657 0 10.237-4.585 10.237-10.241V2h-20.475v61.448c0 5.656 4.581 10.241 10.238 10.241Zm-450.555-.008c5.656 0 10.24-4.584 10.24-10.24V2h-20.48v61.441c0 5.656 4.585 10.24 10.24 10.24Zm-40.96 0c5.656 0 10.24-4.584 10.24-10.24V2h-20.48v61.441c0 5.656 4.584 10.24 10.24 10.24Zm-245.76-40.959c5.655 0 10.24-4.585 10.24-10.24 0-5.656-4.585-10.24-10.24-10.24-5.656 0-10.241 4.584-10.241 10.24 0 5.655 4.585 10.24 10.241 10.24Z" class="d">
        </path>
        <path  fill="#3CB370" d="M184.325 954.32c-5.656 0-10.241 4.587-10.241 10.237V1026h20.481v-61.443c0-5.65-4.585-10.237-10.24-10.237Zm614.384-40.958h-40.958a10.23 10.23 0 0 0-7.246 2.998 10.224 10.224 0 0 0-3.006 7.254v40.958c0 5.657 4.58 10.245 10.238 10.245 5.657 0 10.237-4.588 10.237-10.245v-30.728h30.735c5.657 0 10.245-4.588 10.245-10.245 0-5.657-4.588-10.237-10.245-10.237Zm-450.544 0h-30.451v-30.439c0-5.657-4.584-10.238-10.24-10.238-5.655 0-10.24 4.581-10.24 10.238v38.379c-.17.737-.269 1.503-.269 2.297a10.2 10.2 0 0 0 3.076 7.312 10.209 10.209 0 0 0 7.433 3.215c.81 0 1.594-.108 2.35-.282h28.101v30.728c0 5.657 4.584 10.245 10.24 10.245 5.656 0 10.24-4.588 10.24-10.245v-40.973c0-5.657-4.584-10.237-10.24-10.237ZM225.56 892.879c5.655 0 10.24-4.581 10.24-10.238v-40.958c0-3.923-2.209-7.333-5.449-9.052a10.186 10.186 0 0 0-5.067-1.344h-40.959c-5.656 0-10.241 4.58-10.241 10.237 0 5.658 4.585 10.238 10.241 10.238h30.995v30.879c0 5.657 4.585 10.238 10.24 10.238Zm747.399-133.278c0-5.657-4.58-10.244-10.237-10.244s-10.238 4.587-10.238 10.244v81.916c0 5.657 4.581 10.245 10.238 10.245 5.657 0 10.237-4.588 10.237-10.245v-81.916Zm-256.153 51.564c5.655 0 10.239-4.58 10.239-10.237V759.97c0-.411-.029-.817-.079-1.213-.491-5.196-4.863-9.263-10.189-9.263h-40.96c-5.655 0-10.24 4.587-10.24 10.245 0 .563.058 1.112.146 1.654v39.535c0 5.657 4.584 10.237 10.24 10.237 5.656 0 10.24-4.58 10.24-10.237v-30.952h20.363v30.952c0 5.657 4.585 10.237 10.24 10.237Zm164.014-61.671h-40.958c-5.657 0-10.237 4.587-10.237 10.245v30.72h-30.721c-5.657 0-10.245 4.58-10.245 10.238 0 5.657 4.588 10.237 10.245 10.237h40.958c5.657 0 10.238-4.58 10.238-10.237v-30.721h30.72c5.657 0 10.245-4.588 10.245-10.237 0-5.658-4.588-10.245-10.245-10.245ZM10.244 759.753c0 5.657 4.585 10.245 10.24 10.245s10.24-4.588 10.24-10.245v-81.917c0-5.655-4.585-10.24-10.24-10.24H.003v20.48h10.241v71.677Zm378.96 10.108c5.656 0 10.24-4.588 10.24-10.245v-81.918c0-5.656-4.584-10.241-10.24-10.241h-40.96c-5.655 0-10.239 4.585-10.239 10.241 0 5.655 4.584 10.239 10.239 10.239h30.721v61.441h-30.721c-5.655 0-10.239 4.581-10.239 10.238 0 5.657 4.584 10.245 10.239 10.245h40.96ZM184.325 667.593h-40.96c-5.656 0-10.241 4.585-10.241 10.24s4.585 10.24 10.241 10.24h30.719v20.344h-30.719c-5.656 0-10.241 4.585-10.241 10.241 0 5.655 4.585 10.237 10.241 10.237h39.173c.582.102 1.177.167 1.787.167 5.655 0 10.24-4.583 10.24-10.239v-40.96l-.001-.015.001-.015c0-5.655-4.585-10.24-10.24-10.24Zm491.638-40.96c-5.656 0-10.24 4.585-10.24 10.24v81.92c0 5.655 4.584 10.24 10.24 10.24 5.656 0 10.24-4.585 10.24-10.24v-81.92c0-5.655-4.584-10.24-10.24-10.24Zm337.807-30.716c0-5.655-4.58-10.24-10.24-10.24-5.659 0-10.247 4.585-10.247 10.24v81.92c0 5.656 4.588 10.24 10.247 10.24l.02-.001H1024v-20.48h-10.23v-71.679Zm-460.804-51.205c-5.656 0-10.24 4.585-10.24 10.24v81.921c0 5.654 4.584 10.239 10.24 10.239 5.655 0 10.239-4.585 10.239-10.239v-81.921c0-5.655-4.584-10.24-10.239-10.24ZM921.785 565.2c5.65 0 10.238-4.585 10.238-10.24V514c0-5.656-4.588-10.24-10.238-10.24-5.657 0-10.244 4.584-10.244 10.24v40.96c0 5.655 4.587 10.24 10.244 10.24Zm-338.154-50.891c0 5.655 4.584 10.239 10.24 10.239 5.656 0 10.24-4.584 10.24-10.239V483.28h20.417v31.029c0 5.655 4.585 10.239 10.24 10.239 5.656 0 10.241-4.584 10.241-10.239v-39.414c.11-.603.175-1.221.175-1.855 0-5.656-4.584-10.24-10.24-10.24h-40.96c-4.356 0-8.066 2.725-9.546 6.558a10.218 10.218 0 0 0-.807 3.99v40.961ZM71.684 473.04v-40.96c0-5.656-4.584-10.24-10.24-10.24-5.655 0-10.24 4.584-10.24 10.24v30.72H.003v20.48h61.441c5.656 0 10.24-4.584 10.24-10.24Zm921.599 0c0 5.656 4.588 10.24 10.247 10.24H1024V462.8h-20.47c-5.659 0-10.247 4.584-10.247 10.24Zm-880.638-81.92c0-5.656-4.585-10.24-10.24-10.24-5.656 0-10.24 4.584-10.24 10.24v40.962c0 5.655 4.584 10.24 10.24 10.24h81.92c5.655 0 10.24-4.585 10.24-10.24V391.12c0-5.656-4.585-10.24-10.24-10.24-5.656 0-10.241 4.584-10.241 10.24v30.722h-61.439V391.12Zm890.885 51.2c5.66 0 10.24-4.585 10.24-10.24v-81.921c0-5.655-4.58-10.239-10.24-10.239-5.659 0-10.247 4.584-10.247 10.239v81.921c0 5.655 4.588 10.24 10.247 10.24ZM61.444 319.441c5.656 0 10.24-4.585 10.24-10.24 0-5.656-4.584-10.241-10.24-10.241-5.655 0-10.24 4.585-10.24 10.241 0 5.655 4.585 10.24 10.24 10.24Zm573.442-184.322c-5.656 0-10.241 4.585-10.241 10.24v71.68h-30.7l-.019-.001c-5.656 0-10.241 4.585-10.241 10.24v81.921c0 5.655 4.585 10.239 10.241 10.239 5.655 0 10.24-4.584 10.24-10.239V237.52h30.72c5.655 0 10.24-4.585 10.24-10.241v-81.92c0-5.655-4.585-10.24-10.24-10.24Zm204.788 20.48h40.958c5.657 0 10.238-4.585 10.238-10.24s-4.581-10.24-10.238-10.24h-40.958c-5.657 0-10.245 4.585-10.245 10.24s4.588 10.24 10.245 10.24Zm-604.149-10.24c0-5.655-4.585-10.24-10.241-10.24h-81.919c-5.656 0-10.241 4.585-10.241 10.24s4.585 10.24 10.241 10.24h81.919c5.656 0 10.241-4.585 10.241-10.24Zm153.6-30.72h40.96c5.656 0 10.24-4.585 10.24-10.24s-4.584-10.24-10.24-10.24h-40.96c-5.656 0-10.24 4.585-10.24 10.24s4.584 10.24 10.24 10.24Zm604.158-92.16v40.96c0 5.656 4.588 10.24 10.247 10.24 5.66 0 10.24-4.584 10.24-10.24V32.72H1024V12.24h-20.47c-5.659 0-10.247 4.585-10.247 10.24ZM51.204 63.439c0 5.656 4.585 10.24 10.24 10.24 5.656 0 10.24-4.584 10.24-10.24V22.48c0-5.655-4.584-10.24-10.24-10.24H.003v20.48h51.201v30.72ZM184.325 32.72c5.655 0 10.24-4.585 10.24-10.241V1.999h-20.481v20.48c0 5.656 4.585 10.241 10.241 10.241Z" class="c">
        </path>
        <path  fill="#0C4B41" d="M798.725 954.32c-5.65 0-10.238 4.587-10.238 10.245V1026h20.482v-61.435c0-5.658-4.587-10.245-10.244-10.245Zm-163.838 40.958c-5.656 0-10.241 4.587-10.241 10.242V1026h20.481v-20.48c0-5.655-4.585-10.242-10.24-10.242Zm-491.521 20.482c5.655 0 10.24-4.58 10.24-10.24v-40.963c0-5.65-4.585-10.237-10.24-10.237-5.656 0-10.241 4.587-10.241 10.237v30.721h-30.719c-5.656 0-10.24 4.587-10.24 10.242V1026h20.48v-10.24h30.72Zm122.88-20.482c-5.655 0-10.24 4.587-10.24 10.242V1026h20.48v-20.48c0-5.655-4.585-10.242-10.24-10.242Zm655.36-40.958c-5.657 0-10.238 4.587-10.238 10.237v40.963c0 5.66 4.581 10.24 10.238 10.24 5.657 0 10.245-4.58 10.245-10.24v-40.963c0-5.65-4.588-10.237-10.245-10.237Zm-573.44 40.958c-5.656 0-10.24 4.587-10.24 10.242 0 5.66 4.584 10.24 10.24 10.24 5.656 0 10.24-4.58 10.24-10.24 0-5.655-4.584-10.242-10.24-10.242Zm368.648-40.951H593.985c-5.655 0-10.24 4.588-10.24 10.238 0 5.657 4.585 10.244 10.24 10.244h122.829c5.656 0 10.24-4.587 10.24-10.244 0-5.65-4.584-10.238-10.24-10.238Zm-122.506-20.483c5.654 0 10.239-4.588 10.239-10.245v-40.958c0-5.657-4.585-10.237-10.239-10.237h-41.166c-5.655 0-10.24 4.58-10.24 10.237s4.585 10.238 10.24 10.238h30.925v30.72c0 5.657 4.585 10.245 10.241 10.245Zm368.256-61.44c-5.65 0-10.238 4.58-10.238 10.237s4.588 10.238 10.238 10.238c5.657 0 10.245-4.581 10.245-10.238 0-5.657-4.588-10.237-10.245-10.237Zm-122.881 0a10.233 10.233 0 0 0-10.238 10.237c0 5.657 4.58 10.238 10.238 10.238 5.657 0 10.245-4.581 10.245-10.238 0-5.657-4.588-10.237-10.245-10.237Zm153.601 10.237c0 5.657 4.588 10.238 10.246 10.238H1024v-20.475h-20.47c-5.658 0-10.246 4.58-10.246 10.237Zm-962.559 0v-40.958c0-5.657-4.585-10.245-10.24-10.245H.004v20.483h10.241v20.483H.004v20.475h20.481c5.655 0 10.24-4.581 10.24-10.238Zm962.559-40.958c0 5.65 4.588 10.238 10.246 10.238H1024v-20.483h-20.47c-5.658 0-10.246 4.588-10.246 10.245Zm-276.131 10.079c5.652 0 10.24-4.58 10.24-10.238 0-5.657-4.588-10.237-10.24-10.237-5.655 0-10.24 4.58-10.24 10.237 0 5.658 4.585 10.238 10.24 10.238ZM235.33 800.697V677.698c0-5.656-4.585-10.241-10.24-10.241-5.656 0-10.24 4.585-10.24 10.241v122.999c0 5.657 4.584 10.237 10.24 10.237 5.655 0 10.24-4.58 10.24-10.237Zm286.976 0c0-5.658-4.585-10.238-10.241-10.238h-30.807v-28.914c.119-.629.187-1.272.187-1.929 0-5.657-4.585-10.238-10.24-10.238h-40.96c-5.656 0-10.24 4.581-10.24 10.238 0 5.657 4.584 10.245 10.24 10.245h30.533v30.778c0 3.554 1.817 6.69 4.572 8.525a10.165 10.165 0 0 0 5.755 1.77h40.96c5.656 0 10.241-4.58 10.241-10.237Zm-327.74 0c0-5.658-4.585-10.238-10.24-10.238h-30.72v-30.778c0-5.086-3.707-9.292-8.562-10.093a10.308 10.308 0 0 0-2.07-.21h-40.961c-5.655 0-10.24 4.581-10.24 10.238 0 5.657 4.585 10.245 10.24 10.245h31.112v30.836c0 5.657 4.585 10.237 10.241 10.237h40.96c5.655 0 10.24-4.58 10.24-10.237Zm676.017-82.039c0 5.655 4.588 10.237 10.238 10.237h30.721v71.686c0 5.65 4.587 10.238 10.244 10.238 5.65 0 10.238-4.588 10.238-10.238v-81.923c0-5.656-4.588-10.241-10.238-10.241h-40.965c-5.65 0-10.238 4.585-10.238 10.241Zm-604.337 10.404c5.655 0 10.24-4.583 10.24-10.239v-30.75h30.577c.048.001.094.007.143.007 5.655 0 10.24-4.584 10.24-10.24v-40.96c0-5.655-4.585-10.24-10.24-10.24s-10.24 4.585-10.24 10.24v30.713h-30.778c-5.656 0-10.241 4.585-10.241 10.24 0 .366.021.726.059 1.083v39.907c0 5.656 4.585 10.239 10.24 10.239Zm645.296-52.638c-.051.418-.087.842-.087 1.274 0 5.655 4.588 10.24 10.237 10.24h30.807V718.8c0 5.656 4.588 10.24 10.245 10.24 5.65 0 10.238-4.584 10.238-10.24v-40.96c0-2.121-.643-4.092-1.748-5.726-1.828-2.801-4.986-4.656-8.576-4.656h-30.634v-30.721c0-5.655-4.588-10.239-10.238-10.239-5.657 0-10.244 4.584-10.244 10.239v39.687Zm-348.32 42.354c0-5.655-4.585-10.24-10.24-10.24h-81.92c-5.656 0-10.24 4.585-10.24 10.24s4.584 10.24 10.24 10.24h81.92c5.655 0 10.24-4.585 10.24-10.24Zm276.641-30.84c5.657 0 10.238-4.585 10.238-10.24s-4.581-10.24-10.238-10.24c-5.657 0-10.237 4.585-10.237 10.24s4.58 10.24 10.237 10.24Zm133.119-50.896v-40.96c0-5.655-4.588-10.24-10.238-10.24-5.657 0-10.245 4.585-10.245 10.24v40.96c0 5.655 4.588 10.24 10.245 10.24 5.65 0 10.238-4.585 10.238-10.24ZM102.406 585.68c-5.656 0-10.24 4.585-10.24 10.24v40.96c0 5.655 4.584 10.24 10.24 10.24 5.655 0 10.24-4.585 10.24-10.24v-40.96c0-5.655-4.585-10.24-10.24-10.24Zm38.571 61.438c5.655 0 10.239-4.585 10.239-10.24V554.96c0-5.655-4.584-10.24-10.239-10.24-5.656 0-10.241 4.585-10.241 10.24v81.918c0 5.655 4.585 10.24 10.241 10.24Zm-69.292-10.24c0-5.655-4.584-10.24-10.24-10.24h-30.72v-61.44h30.72c5.656 0 10.24-4.584 10.24-10.24 0-5.656-4.584-10.24-10.24-10.24h-40.96c-5.655 0-10.24 4.584-10.24 10.24v81.92c0 5.655 4.585 10.24 10.24 10.24h40.96c5.656 0 10.24-4.585 10.24-10.24Zm317.445-51.19c-5.655 0-10.24 4.585-10.24 10.24s4.585 10.24 10.24 10.24 10.24-4.585 10.24-10.24-4.585-10.24-10.24-10.24Zm296.839-30.73c0-5.656-4.584-10.24-10.24-10.24h-81.271c-5.655 0-10.24 4.584-10.24 10.24 0 5.656 4.585 10.24 10.24 10.24h70.973v20.475h-71.504c-5.656 0-10.24 4.584-10.24 10.24 0 5.655 4.584 10.24 10.24 10.24h81.446c.1.003.197.015.298.015.375 0 .743-.023 1.107-.062 5.219-.472 9.309-4.852 9.309-10.193 0-.634-.066-1.251-.176-1.852v-38.02c.038-.356.058-.717.058-1.083Zm-460.684 30.72c-5.654 0-10.239 4.585-10.239 10.24s4.585 10.24 10.239 10.24c5.656 0 10.241-4.585 10.241-10.24s-4.585-10.24-10.241-10.24Zm491.404-81.922h-40.96c-5.655 0-10.24 4.585-10.24 10.24s4.585 10.24 10.24 10.24h30.721v31.033c0 5.655 4.584 10.24 10.239 10.24 5.656 0 10.242-4.585 10.242-10.24v-40.96c0-.053-.007-.104-.007-.156 0-.053.007-.104.007-.157 0-5.655-4.586-10.24-10.242-10.24Zm-604.043 20.492h30.72c5.655 0 10.24-4.584 10.24-10.24 0-5.656-4.585-10.24-10.24-10.24h-40.96c-2.475 0-4.744.877-6.514 2.338a10.217 10.217 0 0 0-3.726 7.902v40.96c0 5.656 4.584 10.24 10.24 10.24 5.655 0 10.24-4.584 10.24-10.24v-30.72Zm327.696 30.71c0-5.656-4.584-10.24-10.24-10.24h-40.96c-5.656 0-10.24 4.584-10.24 10.24 0 5.656 4.584 10.24 10.24 10.24h40.96c5.656 0 10.24-4.584 10.24-10.24Zm552.942-40.959c0 5.655 4.588 10.24 10.246 10.24H1024v-20.48h-20.47c-5.658 0-10.246 4.585-10.246 10.24Zm-962.559 0c0-5.655-4.585-10.24-10.24-10.24H.004v20.48h20.481c5.655 0 10.24-4.585 10.24-10.24ZM256.006 462.8h-30.721c-5.654 0-10.239 4.584-10.239 10.24 0 5.656 4.585 10.24 10.239 10.24h40.961c5.655 0 10.24-4.584 10.24-10.24v-40.96c0-5.656-4.585-10.24-10.24-10.24s-10.24 4.584-10.24 10.24v30.72Zm419.782-81.303c-5.655 0-10.24 4.585-10.24 10.24v40.96c0 5.655 4.585 10.24 10.24 10.24s10.24-4.585 10.24-10.24v-40.96c0-5.655-4.585-10.24-10.24-10.24Zm174.024-31.029c0-5.655-4.588-10.24-10.245-10.24-5.65 0-10.238 4.585-10.238 10.24v40.96c0 5.656 4.588 10.241 10.238 10.241l.043-.002h30.677v30.73c0 5.655 4.588 10.24 10.245 10.24 5.65 0 10.238-4.585 10.238-10.24v-40.97c0-5.656-4.588-10.241-10.238-10.241h-30.72v-30.718Zm122.997-.309c0-5.655-4.588-10.239-10.245-10.239h-40.958c-.029 0-.058.004-.087.004-.029 0-.058-.004-.087-.004-5.657 0-10.237 4.584-10.237 10.239v81.921c0 1.857.498 3.594 1.365 5.096 1.72 3.242 5.123 5.453 9.046 5.453h40.958c5.657 0 10.245-4.585 10.245-10.241 0-5.655-4.588-10.24-10.245-10.24H931.67v-61.749h30.894c5.657 0 10.245-4.584 10.245-10.24ZM307.206 442.32c5.655 0 10.24-4.585 10.24-10.24 0-5.656-4.585-10.24-10.24-10.24s-10.24 4.584-10.24 10.24c0 5.655 4.585 10.24 10.24 10.24Zm81.92 0h40.96c5.656 0 10.24-4.585 10.24-10.24v-81.921c0-5.655-4.584-10.239-10.24-10.239h-40.96c-5.656 0-10.24 4.584-10.24 10.239 0 5.656 4.584 10.24 10.24 10.24h30.72v61.441h-30.72c-5.656 0-10.24 4.584-10.24 10.24 0 5.655 4.584 10.24 10.24 10.24Zm358.28-91.851c0 5.655 4.587 10.24 10.245 10.24 5.657 0 10.238-4.585 10.238-10.24v-40.96c0-5.656-4.581-10.241-10.238-10.241-5.658 0-10.245 4.585-10.245 10.241v40.96Zm-563.08 9.932c5.655 0 10.24-4.584 10.24-10.239 0-5.656-4.585-10.24-10.24-10.24-5.656 0-10.241 4.584-10.241 10.24 0 5.655 4.585 10.239 10.241 10.239ZM61.446 278.48l.02-.001h30.7v71.68c0 5.655 4.584 10.24 10.24 10.24 5.655 0 10.24-4.585 10.24-10.24v-81.92c0-5.655-4.585-10.24-10.24-10.24h-30.72V186.32c0-5.655-4.585-10.24-10.24-10.24-5.656 0-10.24 4.585-10.24 10.24v81.92c0 5.656 4.584 10.24 10.24 10.24Zm655.243 41.268c5.656 0 10.242-4.585 10.242-10.239v-81.921c0-5.655-4.586-10.24-10.242-10.24-5.655 0-10.239 4.585-10.239 10.24v81.921c0 5.654 4.584 10.239 10.239 10.239Zm122.878-20.48h-30.72v-30.72c0-5.655-4.581-10.24-10.238-10.24-5.657 0-10.238 4.585-10.238 10.24v40.961c0 3.181 1.452 6.023 3.728 7.901a10.193 10.193 0 0 0 6.51 2.338h40.958c5.657 0 10.245-4.585 10.245-10.239 0-5.656-4.588-10.241-10.245-10.241ZM225.285 278.48h40.961c5.655 0 10.24-4.585 10.24-10.241 0-5.655-4.585-10.24-10.24-10.24h-30.72v-61.44h30.72c5.655 0 10.24-4.585 10.24-10.239v-.001c0-5.655-4.585-10.24-10.24-10.24h-40.961c-5.654 0-10.239 4.585-10.239 10.24v81.92c0 5.656 4.585 10.241 10.239 10.241Zm194.561-10.242c0 5.656 4.585 10.24 10.24 10.24 5.656 0 10.24-4.584 10.24-10.24 0-5.655-4.584-10.239-10.24-10.239-5.655 0-10.24 4.584-10.24 10.239Zm337.863-30.718h40.958c5.657 0 10.245-4.585 10.245-10.241 0-5.655-4.588-10.24-10.245-10.24h-40.958c-5.657 0-10.239 4.585-10.239 10.24 0 5.656 4.582 10.241 10.239 10.241Zm174.163-10.255c0-5.656-4.58-10.241-10.237-10.241s-10.238 4.585-10.238 10.241c0 5.654 4.581 10.239 10.238 10.239 5.657 0 10.237-4.585 10.237-10.239ZM348.166 94.159c-5.656 0-10.24 4.585-10.24 10.24v40.96c0 5.655 4.584 10.24 10.24 10.24h30.72v30.721c0 5.654 4.584 10.239 10.24 10.239 5.656 0 10.24-4.585 10.24-10.239v-40.961c0-5.655-4.584-10.24-10.24-10.24h-30.72v-30.72c0-5.655-4.584-10.24-10.24-10.24Zm368.523 102.4c5.656 0 10.242-4.585 10.242-10.239v-81.921c0-5.655-4.586-10.24-10.242-10.24-5.655 0-10.239 4.585-10.239 10.24v81.921c0 5.654 4.584 10.239 10.239 10.239Zm122.986-.015h81.916c5.657 0 10.238-4.585 10.238-10.24s-4.581-10.24-10.238-10.24h-81.916c-5.657 0-10.245 4.585-10.245 10.24s4.588 10.24 10.245 10.24Zm163.855-40.945c5.66 0 10.24-4.585 10.24-10.24s-4.58-10.24-10.24-10.24c-5.658 0-10.246 4.585-10.246 10.24s4.588 10.24 10.246 10.24Zm-901.124 0c5.655 0 10.24-4.585 10.24-10.24s-4.585-10.24-10.24-10.24c-5.656 0-10.24 4.585-10.24 10.24s4.584 10.24 10.24 10.24Zm501.761-10.24c0-5.655-4.585-10.24-10.24-10.24-5.656 0-10.241 4.585-10.241 10.24s4.585 10.24 10.241 10.24c5.655 0 10.24-4.585 10.24-10.24Zm-419.841-30.72c5.655 0 10.24-4.585 10.24-10.24s-4.585-10.24-10.24-10.24c-5.656 0-10.241 4.585-10.241 10.24s4.585 10.24 10.241 10.24ZM788.487 1.999V22.48c0 5.655 4.588 10.24 10.238 10.24h30.72v71.679c0 5.655 4.588 10.239 10.245 10.239 5.65 0 10.238-4.584 10.238-10.239v-81.92c0-5.656-4.588-10.241-10.238-10.241h-30.721V1.998h-20.482Zm-768.002 51.2c-5.655 0-10.24 4.585-10.24 10.24 0 5.656 4.585 10.24 10.24 10.24s10.24-4.584 10.24-10.24c0-5.655-4.585-10.24-10.24-10.24ZM552.967 32.72h30.719v30.72c0 5.655 4.585 10.24 10.241 10.24h40.96c5.655 0 10.24-4.585 10.24-10.24 0-5.656-4.585-10.24-10.24-10.24h-30.72V22.478c0-5.655-4.585-10.24-10.24-10.24h-40.96c-5.656 0-10.241 4.585-10.241 10.24 0 5.656 4.585 10.241 10.241 10.241Zm81.92 0c5.655 0 10.24-4.585 10.24-10.241V1.999h-20.481v20.48c0 5.656 4.585 10.241 10.241 10.241Zm-368.641 0c5.655 0 10.24-4.585 10.24-10.241V1.999h-20.48v20.48c0 5.656 4.585 10.241 10.24 10.241Zm-163.84 0c5.655 0 10.24-4.585 10.24-10.241V1.999h-20.48v20.48c0 5.656 4.584 10.241 10.24 10.241Z" class="b">
        </path>
        <path fill="#1C3112" d="M768.015 1005.54c0-2.84-1.156-5.4-3.021-7.254a10.182 10.182 0 0 0-7.253-3.02c-.203 0-.398.022-.593.036h-81.296c-5.656 0-10.241 4.581-10.241 10.238 0 5.66 4.585 10.24 10.241 10.24h71.651V1026h20.475v-19.87c.015-.19.037-.39.037-.59ZM61.448 995.31h-40.96c-5.655 0-10.24 4.58-10.24 10.24 0 5.65 4.585 10.24 10.24 10.24h40.96c5.656 0 10.24-4.59 10.24-10.24 0-5.66-4.584-10.24-10.24-10.24Zm778.238-81.945c-5.658 0-10.238 4.587-10.238 10.245v81.92c0 5.65 4.58 10.24 10.238 10.24 5.657 0 10.245-4.59 10.245-10.24v-81.92c0-5.658-4.588-10.245-10.245-10.245Zm40.965 40.965c-5.657 0-10.238 4.588-10.238 10.238 0 5.657 4.581 10.244 10.238 10.244 5.657 0 10.237-4.587 10.237-10.244 0-5.65-4.58-10.238-10.237-10.238ZM635.08 913.365c-5.656 0-10.24 4.58-10.24 10.237s4.584 10.245 10.24 10.245c5.656 0 10.24-4.588 10.24-10.245 0-5.657-4.584-10.237-10.24-10.237Zm-358.62 10.237c0-5.657-4.585-10.237-10.24-10.237s-10.239 4.58-10.239 10.237 4.584 10.245 10.239 10.245c5.655 0 10.24-4.588 10.24-10.245Zm727.07 10.245c5.66 0 10.24-4.588 10.24-10.245 0-5.657-4.58-10.237-10.24-10.237-5.655 0-10.243 4.58-10.243 10.237s4.588 10.245 10.243 10.245Zm-573.498 0h40.96c5.656 0 10.24-4.588 10.24-10.245 0-5.657-4.584-10.237-10.24-10.237h-40.96c-5.656 0-10.24 4.58-10.24 10.237s4.584 10.245 10.24 10.245Zm286.954-20.482h-30.721v-30.721c0-5.657-4.584-10.237-10.239-10.237-5.655 0-10.24 4.58-10.24 10.237v40.958c0 5.657 4.585 10.245 10.24 10.245h40.96c5.656 0 10.237-4.588 10.237-10.245a10.233 10.233 0 0 0-10.237-10.237Zm-194.252-30.786c0-5.657-4.584-10.237-10.24-10.237H440.88v-71.773c0-5.657-4.585-10.244-10.24-10.244s-10.24 4.587-10.24 10.244v80.876c-.041.376-.066.751-.066 1.134 0 5.657 4.584 10.238 10.24 10.238h81.92c5.656 0 10.24-4.581 10.24-10.238ZM61.449 851.931c.597 0 1.179-.065 1.749-.166h80.171c5.655 0 10.24-4.58 10.24-10.238 0-5.657-4.585-10.237-10.24-10.237H71.688v-71.52c0-5.657-4.584-10.244-10.239-10.244-5.656 0-10.241 4.587-10.241 10.244v81.916c0 5.657 4.585 10.245 10.241 10.245Zm542.816-10.389c0-5.657-4.585-10.238-10.241-10.238h-81.919c-5.656 0-10.241 4.581-10.241 10.238 0 5.657 4.585 10.238 10.241 10.238h81.919c5.656 0 10.241-4.581 10.241-10.238Zm153.678-133.121c-5.65 0-10.238 4.585-10.238 10.24v122.823c0 5.657 4.588 10.238 10.238 10.238 5.657 0 10.245-4.581 10.245-10.238V718.661c0-5.655-4.588-10.24-10.245-10.24ZM267.864 810.937h40.96c5.656 0 10.241-4.58 10.241-10.237 0-5.658-4.585-10.238-10.241-10.238h-30.61v-30.778c0-5.657-4.584-10.245-10.239-10.245-5.655 0-10.24 4.588-10.24 10.245v39.592c-.065.463-.111.939-.111 1.424 0 5.657 4.585 10.237 10.24 10.237Zm77.83 0c5.655 0 10.24-4.58 10.24-10.237 0-5.658-4.585-10.238-10.24-10.238s-10.239 4.58-10.239 10.238c0 5.657 4.584 10.237 10.239 10.237Zm-161.365-61.368c-5.656 0-10.241 4.588-10.241 10.238 0 5.657 4.585 10.244 10.241 10.244 5.655 0 10.24-4.587 10.24-10.244 0-5.65-4.585-10.238-10.24-10.238Zm122.88-41.006c-5.655 0-10.24 4.585-10.24 10.24v40.96c0 5.657 4.585 10.238 10.24 10.238s10.24-4.581 10.24-10.238v-40.96c0-5.655-4.585-10.24-10.24-10.24Zm276.539 51.048c0 5.658 4.585 10.238 10.24 10.238 5.656 0 10.24-4.58 10.24-10.238 0-5.657-4.584-10.244-10.24-10.244-5.655 0-10.24 4.587-10.24 10.244Zm-163.899-40.807c0 5.655 4.585 10.239 10.24 10.239 5.656 0 10.241-4.584 10.241-10.239 0-5.656-4.585-10.24-10.241-10.24-5.655 0-10.24 4.584-10.24 10.24Zm215.099-92.168h-40.96c-5.655 0-10.24 4.585-10.24 10.24v81.92c0 5.655 4.585 10.24 10.24 10.24h40.96c5.656 0 10.24-4.585 10.24-10.24s-4.584-10.24-10.24-10.24h-30.72v-61.44h30.72c5.656 0 10.24-4.585 10.24-10.24s-4.584-10.24-10.24-10.24Zm-286.7 102.262c5.656 0 10.24-4.582 10.24-10.237 0-5.656-4.584-10.241-10.24-10.241-5.655 0-10.239 4.585-10.239 10.241 0 5.655 4.584 10.237 10.239 10.237Zm214.977-51.062c0-5.655-4.585-10.24-10.24-10.24h-40.96c-5.656 0-10.24 4.585-10.24 10.24s4.584 10.24 10.24 10.24h40.96c5.655 0 10.24-4.585 10.24-10.24Zm317.599-173.99c-5.65 0-10.238 4.584-10.238 10.24v163.615c0 5.655 4.588 10.24 10.238 10.24 5.657 0 10.245-4.585 10.245-10.24V514.086c0-5.656-4.588-10.24-10.245-10.24Zm-368.807 143.27c5.656 0 10.24-4.585 10.24-10.24s-4.584-10.24-10.24-10.24c-5.655 0-10.239 4.585-10.239 10.24s4.584 10.24 10.239 10.24Zm286.891-.135c5.657 0 10.238-4.585 10.238-10.241v-40.959c0-5.656-4.581-10.241-10.238-10.241h-40.965c-5.65 0-10.238 4.585-10.238 10.241 0 5.655 4.588 10.24 10.238 10.24h30.728v30.719c0 5.656 4.58 10.241 10.237 10.241Zm-624.82-92.02.001.005-.001.005v40.96c0 5.656 4.585 10.24 10.241 10.24 5.655 0 10.24-4.584 10.24-10.24v-30.73h30.68l.039.002c5.656 0 10.241-4.585 10.241-10.24v-40.96c0-5.656-4.585-10.24-10.241-10.24-5.654 0-10.239 4.584-10.239 10.24v30.718h-30.72c-5.656 0-10.241 4.584-10.241 10.24Zm-112.64 30.72c-5.655 0-10.24 4.585-10.24 10.24s4.585 10.24 10.24 10.24c5.656 0 10.24-4.585 10.24-10.24s-4.584-10.24-10.24-10.24Zm850.097 10.1c0 5.655 4.587 10.24 10.244 10.24 5.65 0 10.238-4.585 10.238-10.24 0-5.656-4.588-10.241-10.238-10.241-5.657 0-10.244 4.585-10.244 10.241Zm-163.659-40.819c0 5.655 4.581 10.24 10.238 10.24h39.231c.412.05.831.084 1.257.084.751 0 1.481-.086 2.189-.24 4.834-.818 8.526-5.015 8.526-10.084 0-1.072-.167-2.104-.477-3.074v-27.337h30.872c5.657 0 10.237-4.584 10.237-10.239 0-5.655-4.58-10.24-10.237-10.24h-38.979a10.244 10.244 0 0 0-2.131-.226c-5.657 0-10.238 4.584-10.238 10.24v30.635h-30.25c-5.657 0-10.238 4.585-10.238 10.241Zm-409.957-10.239h-30.72c-5.655 0-10.24 4.585-10.24 10.24s4.585 10.24 10.24 10.24h40.96c5.656 0 10.24-4.585 10.24-10.24v-40.96c0-5.656-4.584-10.24-10.24-10.24-5.656 0-10.24 4.584-10.24 10.24v30.72Zm40.96-71.68v40.96c0 5.655 4.584 10.24 10.24 10.24 5.656 0 10.24-4.585 10.24-10.24v-30.72h61.44v30.72c0 5.655 4.585 10.24 10.24 10.24 5.656 0 10.24-4.585 10.24-10.24v-40.96c0-5.656-4.584-10.24-10.24-10.24h-81.92c-5.656 0-10.24 4.584-10.24 10.24Zm174.081 30.716c-5.656 0-10.241 4.585-10.241 10.24s4.585 10.24 10.241 10.24c5.655 0 10.239-4.585 10.239-10.24s-4.584-10.24-10.239-10.24Zm112.522-30.408c0 5.656 4.585 10.24 10.24 10.24h40.96c5.656 0 10.242-4.584 10.242-10.24v-30.719h30.72c5.657 0 10.238-4.585 10.238-10.241 0-5.655-4.581-10.24-10.238-10.24h-40.962c-2.473 0-4.743.878-6.513 2.339a10.217 10.217 0 0 0-3.726 7.901v30.721h-30.721c-5.655 0-10.24 4.584-10.24 10.239Zm-440.204-92.468c-5.656 0-10.24 4.585-10.24 10.24v40.96c0 5.655 4.584 10.24 10.24 10.24 5.655 0 10.24-4.585 10.24-10.24v-40.96c0-5.655-4.585-10.24-10.24-10.24Zm-204.8 40.96c-5.655 0-10.24 4.584-10.24 10.24 0 5.655 4.585 10.24 10.24 10.24s10.24-4.585 10.24-10.24c0-5.656-4.585-10.24-10.24-10.24Zm573.442 0c-5.656 0-10.241 4.584-10.241 10.24 0 5.655 4.585 10.24 10.241 10.24h40.961c5.656 0 10.241-4.585 10.241-10.24v-81.921c0-5.655-4.585-10.239-10.241-10.239H593.93c-5.656 0-10.241 4.584-10.241 10.239 0 5.656 4.585 10.24 10.241 10.24h30.721v61.441H593.93Zm122.762-20.171h40.962c5.657 0 10.238-4.585 10.238-10.241 0-5.655-4.581-10.24-10.238-10.24h-30.72v-30.72c0-5.655-4.586-10.24-10.242-10.24-5.655 0-10.239 4.585-10.239 10.24v40.96c0 5.656 4.584 10.241 10.239 10.241Zm-409.483-61.749h-40.96c-5.655 0-10.24 4.584-10.24 10.239v40.961c0 5.655 4.585 10.239 10.24 10.239h40.96c5.655 0 10.24-4.584 10.24-10.239 0-5.656-4.585-10.24-10.24-10.24h-30.72v-20.481h30.72c5.655 0 10.24-4.584 10.24-10.24 0-5.655-4.585-10.239-10.24-10.239Zm327.682-81.921c-5.655 0-10.24 4.585-10.24 10.24v40.171c-.038.361-.06.727-.06 1.099 0 5.654 4.585 10.239 10.24 10.239h30.72v30.721c0 5.655 4.585 10.24 10.24 10.24s10.24-4.585 10.24-10.24v-40.96c0-5.656-4.585-10.241-10.24-10.241h-30.659v-31.029c0-5.655-4.585-10.24-10.241-10.24ZM880.535 360.71c5.65 0 10.238-4.584 10.238-10.24 0-5.655-4.588-10.24-10.238-10.24-5.657 0-10.245 4.585-10.245 10.24 0 5.656 4.588 10.24 10.245 10.24Zm-532.366-.308c5.656 0 10.24-4.584 10.24-10.24 0-5.655-4.584-10.239-10.24-10.239-5.656 0-10.24 4.584-10.24 10.239 0 5.656 4.584 10.24 10.24 10.24Zm215.158-92.16v-40.96c0-5.655-4.585-10.24-10.24-10.24-5.656 0-10.24 4.585-10.24 10.24v30.72h-30.72c-5.656 0-10.24 4.585-10.24 10.24v40.96c0 5.656 4.584 10.24 10.24 10.24 5.655 0 10.239-4.584 10.239-10.24v-30.719h30.721c5.655 0 10.24-4.585 10.24-10.241Zm450.443-40.96c0-5.655-4.58-10.24-10.24-10.24-5.655 0-10.243 4.585-10.243 10.24v81.92c0 5.656 4.588 10.24 10.243 10.24h20.48v-20.48h-10.24v-71.68Zm-993.282 92.16c5.655 0 10.24-4.584 10.24-10.24v-81.92c0-5.655-4.585-10.24-10.24-10.24s-10.24 4.585-10.24 10.24v71.68H.008v20.48h20.48Zm860.047-40.649h81.916c.029 0 .051-.003.072-.003l.037.002c5.657 0 10.244-4.585 10.244-10.241v-40.96c0-5.655-4.587-10.24-10.244-10.24-5.65 0-10.238 4.585-10.238 10.24v30.722h-61.549v-30.722c0-5.655-4.588-10.24-10.238-10.24-5.657 0-10.245 4.585-10.245 10.24v40.963c0 5.654 4.588 10.239 10.245 10.239Zm-204.684-20.482c-5.656 0-10.24 4.585-10.24 10.24s4.584 10.24 10.24 10.24c5.655 0 10.24-4.585 10.24-10.24s-4.585-10.24-10.24-10.24Zm-327.682-20.787h40.96c5.656 0 10.24-4.584 10.24-10.24 0-5.655-4.584-10.24-10.24-10.24h-30.72v-30.722c0-5.655-4.584-10.24-10.24-10.24-5.656 0-10.24 4.585-10.24 10.24v40.962c0 5.656 4.584 10.24 10.24 10.24Zm-81.92-20.482c-5.655 0-10.24 4.585-10.24 10.24 0 5.656 4.585 10.241 10.24 10.241s10.24-4.585 10.24-10.241c0-5.655-4.585-10.24-10.24-10.24Zm245.759 20.481c5.656 0 10.241-4.585 10.241-10.241 0-5.655-4.585-10.24-10.241-10.24-5.655 0-10.24 4.585-10.24 10.24 0 5.656 4.585 10.241 10.24 10.241Zm-409.599 0h81.92c5.655 0 10.24-4.585 10.24-10.241v-40.959c0-5.656-4.585-10.241-10.24-10.241-5.656 0-10.241 4.585-10.241 10.241v30.719h-61.439v-30.719c0-5.656-4.585-10.241-10.24-10.241-5.656 0-10.24 4.585-10.24 10.241v40.959c0 5.656 4.584 10.241 10.24 10.241Zm358.4-51.201v.001c0 5.654 4.585 10.239 10.24 10.239h122.822c5.655 0 10.24-4.585 10.24-10.239v-.001c0-5.655-4.585-10.24-10.24-10.24H471.049c-5.655 0-10.24 4.585-10.24 10.24Zm296.903-30.72c5.657 0 10.238-4.585 10.238-10.24s-4.581-10.24-10.238-10.24c-5.657 0-10.239 4.585-10.239 10.24s4.582 10.24 10.239 10.24Zm122.932-40.96c5.657 0 10.237-4.585 10.237-10.24s-4.58-10.24-10.237-10.24-10.238 4.585-10.238 10.24 4.581 10.24 10.238 10.24Zm112.643-10.24c0 5.655 4.588 10.24 10.243 10.24h20.48v-20.48h-20.48c-5.655 0-10.243 4.585-10.243 10.24Zm-409.598 0c0 5.655 4.585 10.24 10.241 10.24h81.92c5.655 0 10.24-4.585 10.24-10.24s-4.585-10.24-10.24-10.24h-81.92c-5.656 0-10.241 4.585-10.241 10.24Zm-512.001 0c0-5.655-4.584-10.24-10.24-10.24H.008v20.48h61.44c5.656 0 10.24-4.585 10.24-10.24Zm194.561-30.72h81.92c5.656 0 10.24-4.584 10.24-10.24 0-5.655-4.584-10.24-10.24-10.24h-81.92c-5.655 0-10.24 4.585-10.24 10.24 0 5.656 4.585 10.24 10.24 10.24Zm-81.92 0h40.959c5.656 0 10.241-4.584 10.241-10.24v-40.96c0-5.655-4.585-10.24-10.241-10.24-5.654 0-10.239 4.585-10.239 10.24v30.72h-30.72c-5.656 0-10.241 4.585-10.241 10.24 0 5.656 4.585 10.24 10.241 10.24Zm532.48 0h81.919c5.657 0 10.244-4.584 10.244-10.24 0-5.655-4.587-10.24-10.244-10.24h-81.919c-5.654 0-10.239 4.585-10.239 10.24 0 5.656 4.585 10.24 10.239 10.24Zm-40.957-61.425c-5.656 0-10.241 4.584-10.241 10.24 0 5.656 4.585 10.24 10.241 10.24h81.918c5.657 0 10.245-4.584 10.245-10.24 0-.201-.022-.397-.037-.595V2.001h-20.475v10.256h-71.651Z" class="a">
        </path>
    </g>
    <defs>
        <clipPath id="p54f01_a">
            <path d="M0 0h1024v1024H0z">
            </path>
        </clipPath>
    </defs>
</svg>